<?xml version="1.0" standalone="no"?>
<!DOCTYPE svg PUBLIC "-//W3C//DTD SVG 20010904//EN"
 "http://www.w3.org/TR/2001/REC-SVG-20010904/DTD/svg10.dtd">
<svg version="1.0" xmlns="http://www.w3.org/2000/svg"
 width="512.000000pt" height="512.000000pt" viewBox="0 0 512.000000 512.000000"
 preserveAspectRatio="xMidYMid meet">
<metadata>
Created by potrace 1.16, written by Peter Selinger 2001-2019
</metadata>
<g transform="translate(0.000000,512.000000) scale(0.100000,-0.100000)"
fill="#000000" stroke="none">
<path d="M0 2560 l0 -2560 2560 0 2560 0 0 2560 0 2560 -2560 0 -2560 0 0
-2560z m1840 965 c4 -108 8 -130 20 -128 8 1 42 10 74 19 102 28 191 -2 229
-76 15 -31 17 -64 15 -295 l-3 -260 -100 0 -100 0 -5 227 c-3 124 -8 230 -12
233 -18 18 -63 6 -90 -24 -28 -31 -28 -33 -28 -161 0 -85 4 -130 11 -130 5 0
8 -4 5 -8 -3 -5 -8 -35 -11 -68 -4 -32 -10 -63 -15 -68 -10 -10 -187 -13 -196
-3 -11 11 -4 840 7 854 11 13 72 20 149 19 l45 -1 5 -130z m1500 -233 c4 -290
7 -344 20 -353 8 -5 40 -7 71 -3 38 4 59 2 64 -6 4 -6 15 -8 25 -5 10 3 21 1
25 -5 3 -5 -1 -10 -11 -10 -12 0 -15 -6 -10 -22 23 -82 17 -102 -35 -113 -17
-4 -35 -15 -41 -25 -10 -15 -14 -16 -25 -4 -10 9 -38 14 -86 14 -91 0 -141 26
-177 90 -25 45 -25 47 -28 335 -2 179 -7 294 -13 302 -7 7 -42 13 -87 15 l-77
3 -3 54 c-5 87 -17 82 195 79 l188 -3 5 -343z m680 0 c4 -290 7 -344 20 -353
8 -5 42 -8 75 -7 l60 3 19 -38 c49 -102 19 -130 -144 -135 -94 -2 -109 0 -145
21 -24 13 -50 40 -65 67 -25 45 -25 47 -28 335 -2 179 -7 294 -13 302 -7 7
-42 13 -87 15 l-77 3 -3 54 c-5 87 -17 82 195 79 l188 -3 5 -343z m-3432 76
c109 -66 205 -128 215 -136 25 -22 25 -152 0 -174 -18 -16 -313 -201 -387
-244 -28 -16 -45 -20 -57 -14 -21 12 -79 101 -79 123 0 21 38 48 193 138 70
41 127 78 127 84 0 5 -68 48 -150 94 -82 46 -155 89 -161 97 -15 18 -6 48 31
107 20 31 37 47 51 47 12 0 109 -55 217 -122z m2147 28 c103 -49 148 -130 149
-271 l1 -90 -185 -5 c-207 -6 -217 -10 -162 -70 38 -44 107 -52 177 -21 66 29
79 27 115 -21 45 -63 39 -86 -35 -123 -57 -29 -66 -30 -185 -30 -140 0 -175
11 -236 77 -66 69 -79 110 -79 243 0 104 3 127 23 170 30 65 75 112 137 141
72 34 208 34 280 0z m2030 5 c60 -27 103 -67 133 -125 25 -48 27 -59 27 -186
0 -127 -2 -138 -27 -185 -56 -106 -126 -144 -264 -145 -110 0 -164 17 -217 68
-51 49 -73 94 -88 177 -31 177 31 333 155 391 67 31 218 34 281 5z m-1215
-185 c0 -3 -4 -8 -10 -11 -5 -3 -10 -1 -10 4 0 6 5 11 10 11 6 0 10 -2 10 -4z
m-10 -79 c0 -20 0 -20 -14 -2 -8 11 -12 23 -9 28 8 13 23 -3 23 -26z m-1911
-419 c0 -27 -2 -29 -8 -13 -5 11 -6 26 -4 33 8 21 13 13 12 -20z m-104 -68 l0
-75 -295 0 -295 0 0 75 0 75 260 5 c143 3 276 3 295 0 l35 -5 0 -75z m155 49
c0 -5 -5 -8 -11 -6 -6 1 -13 -11 -14 -27 -5 -38 -15 -46 -15 -12 0 34 18 69
31 61 5 -4 9 -10 9 -16z m117 -56 c-3 -10 -5 -4 -5 12 0 17 2 24 5 18 2 -7 2
-21 0 -30z m42 -228 c-1 -33 -16 26 -23 87 l-5 53 14 -60 c8 -33 14 -69 14
-80z m-522 -30 c0 -19 -8 -19 -33 0 -18 14 -18 14 7 15 16 0 26 -5 26 -15z
m2210 -107 c11 -8 13 -101 11 -437 l-3 -426 -79 -3 c-60 -2 -83 1 -95 12 -16
14 -21 14 -56 -4 -48 -25 -171 -28 -214 -6 -43 23 -87 79 -107 138 -15 41 -19
82 -19 178 0 116 2 129 28 185 55 118 106 149 241 143 l91 -3 3 110 c1 61 5
116 7 124 4 11 23 12 93 7 47 -4 92 -12 99 -18z m-869 -97 c1 -52 8 -101 14
-108 6 -8 7 -13 1 -13 -14 0 -17 -450 -4 -470 8 -11 29 -15 78 -15 l68 0 22
-45 c25 -51 29 -83 11 -97 -27 -22 -89 -34 -172 -34 -108 0 -158 23 -196 91
-25 45 -25 47 -28 335 -2 179 -7 294 -13 302 -7 7 -42 13 -87 15 l-77 3 -3 63
c-3 54 0 63 17 70 11 4 97 5 193 2 l173 -5 3 -94z m-1333 79 c3 -5 1 -10 -4
-10 -6 0 -11 5 -11 10 0 6 2 10 4 10 3 0 8 -4 11 -10z m554 -92 c6 -18 7 -28
2 -23 -10 12 -25 55 -18 55 3 0 10 -15 16 -32z m-514 -127 c60 -27 103 -67
133 -125 25 -48 27 -59 27 -186 0 -127 -2 -138 -27 -185 -56 -106 -126 -144
-264 -145 -110 0 -164 17 -217 68 -51 49 -73 94 -88 177 -31 177 31 333 155
391 67 31 218 34 281 5z m836 8 c18 -9 19 -18 15 -72 -8 -92 -25 -190 -35
-200 -4 -4 -35 -7 -67 -5 l-59 3 -5 35 c-7 47 -31 50 -64 8 -40 -53 -56 -102
-56 -171 0 -75 7 -84 70 -89 l45 -3 0 -65 0 -65 -200 0 -200 0 0 65 c0 62 1
65 25 68 45 6 50 25 50 178 0 151 -3 159 -50 166 -24 3 -25 6 -25 68 l0 65
120 0 120 0 10 -32 c5 -18 12 -33 16 -33 4 0 19 15 33 32 18 24 22 35 13 41
-8 6 -7 7 5 4 9 -3 29 -2 45 3 41 12 171 12 194 -1z m-1812 -31 c5 -13 12 -74
16 -136 4 -62 11 -115 16 -118 5 -3 9 -4 10 -2 0 2 8 46 17 98 l17 95 90 0 90
0 7 -50 c21 -150 34 -148 48 10 6 59 13 112 16 117 8 13 160 10 171 -4 12 -15
-63 -576 -80 -596 -7 -9 -39 -12 -116 -10 l-106 3 -12 89 c-17 135 -33 135
-49 1 -11 -96 -10 -95 -123 -95 -67 0 -102 4 -108 13 -12 15 -83 494 -83 560
l0 47 85 0 c79 0 86 -2 94 -22z m2358 -14 c-3 -3 -12 -4 -19 -1 -8 3 -5 6 6 6
11 1 17 -2 13 -5z"/>
<path d="M2540 3244 c-23 -20 -30 -34 -28 -53 3 -26 4 -26 83 -26 75 0 80 1
83 23 4 29 -48 82 -81 82 -14 0 -40 -12 -57 -26z"/>
<path d="M4587 3248 c-72 -55 -59 -305 18 -324 33 -8 69 8 90 40 20 30 30 126
20 192 -11 79 -80 128 -128 92z"/>
<path d="M3223 1885 c-60 -42 -66 -252 -8 -302 34 -30 51 -29 86 6 29 29 29
30 29 148 0 65 -4 123 -8 129 -9 14 -47 34 -64 34 -8 0 -23 -7 -35 -15z"/>
<path d="M1194 1890 c-78 -31 -69 -306 11 -326 64 -16 105 35 113 136 10 142
-43 223 -124 190z"/>
</g>
</svg>
